<?xml version="1.0" encoding="UTF-8"?>
<svg width="22px" height="22px" viewBox="0 0 22 22" version="1.1" xmlns="http://www.w3.org/2000/svg" xmlns:xlink="http://www.w3.org/1999/xlink">
    <!-- Generator: Sketch 45.1 (43504) - http://www.bohemiancoding.com/sketch -->
    <title>暂停 (语音)</title>
    <desc>Created with Sketch.</desc>
    <defs></defs>
    <g id="终稿" stroke="none" stroke-width="1" fill="none" fill-rule="evenodd">
        <g id="直播界面-语音样式" transform="translate(-93.000000, -473.000000)" fill-rule="nonzero" fill="#00D2C3">
            <g id="Group-5-Copy-4" transform="translate(14.000000, 436.000000)">
                <g id="Group-9-Copy" transform="translate(64.000000, 28.000000)">
                    <g id="Group-2">
                        <g id="暂停-(语音)" transform="translate(15.000000, 9.000000)">
                            <path d="M11,21.9892683 C4.9902439,21.9892683 0.0107317073,17.0097561 0.0107317073,11 C0.0107317073,4.9902439 4.9902439,0.0107317073 11,0.0107317073 C17.0097561,0.0107317073 21.9892683,4.9902439 21.9892683,11 C21.9892683,17.0097561 17.0097561,21.9892683 11,21.9892683 Z M11,1.38439024 C5.67707317,1.38439024 1.38439024,5.67707317 1.38439024,11 C1.38439024,16.3229268 5.67707317,20.6156098 11,20.6156098 C16.3229268,20.6156098 20.6156098,16.3229268 20.6156098,11 C20.6156098,5.67707317 16.3229268,1.38439024 11,1.38439024 Z M8.76780488,15.1209756 C8.42439024,15.1209756 8.08097561,14.777561 8.08097561,14.4341463 L8.08097561,7.56585366 C8.08097561,7.22243902 8.42439024,6.87902439 8.76780488,6.87902439 C9.11121951,6.87902439 9.45463415,7.22243902 9.45463415,7.56585366 L9.45463415,14.4341463 C9.45463415,14.777561 9.28292683,15.1209756 8.76780488,15.1209756 Z M13.2321951,15.1209756 C12.8887805,15.1209756 12.5453659,14.777561 12.5453659,14.4341463 L12.5453659,7.56585366 C12.5453659,7.22243902 12.7170732,6.87902439 13.2321951,6.87902439 C13.7473171,6.87902439 13.9190244,7.22243902 13.9190244,7.56585366 L13.9190244,14.4341463 C13.9190244,14.777561 13.5756098,15.1209756 13.2321951,15.1209756 Z" id="Shape"></path>
                        </g>
                    </g>
                </g>
            </g>
        </g>
    </g>
</svg>