<?xml version="1.0" encoding="UTF-8"?>
<svg width="22px" height="22px" viewBox="0 0 22 22" version="1.1" xmlns="http://www.w3.org/2000/svg" xmlns:xlink="http://www.w3.org/1999/xlink">
    <!-- Generator: Sketch 45.1 (43504) - http://www.bohemiancoding.com/sketch -->
    <title>播放</title>
    <desc>Created with Sketch.</desc>
    <defs></defs>
    <g id="终稿" stroke="none" stroke-width="1" fill="none" fill-rule="evenodd">
        <g id="直播界面-语音样式" transform="translate(-93.000000, -561.000000)" fill-rule="nonzero" fill="#00D2C3">
            <g id="Group-5-Copy-5" transform="translate(14.000000, 524.000000)">
                <g id="Group-9-Copy" transform="translate(64.000000, 28.000000)">
                    <g id="Group-2">
                        <g id="播放" transform="translate(15.000000, 9.000000)">
                            <path d="M11,21.9892683 C4.9902439,21.9892683 0.0107317073,17.0097561 0.0107317073,11 C0.0107317073,4.9902439 4.9902439,0.0107317073 11,0.0107317073 C17.0097561,0.0107317073 21.9892683,4.9902439 21.9892683,11 C21.9892683,17.0097561 17.0097561,21.9892683 11,21.9892683 Z M11,1.38439024 C5.67707317,1.38439024 1.38439024,5.67707317 1.38439024,11 C1.38439024,16.3229268 5.67707317,20.6156098 11,20.6156098 C16.3229268,20.6156098 20.6156098,16.3229268 20.6156098,11 C20.6156098,5.67707317 16.3229268,1.38439024 11,1.38439024 Z M14.5388637,11.8671091 L9.38121989,15.4023273 C8.6824555,15.8812835 8.11599487,15.5861589 8.11599487,14.737043 L8.11599487,7.26272099 C8.11599487,6.41633855 8.68131883,6.11770167 9.38121989,6.59743675 L14.5388637,10.132655 C15.2376281,10.6116112 15.2387647,11.3873736 14.5388637,11.8671091 Z" id="Shape"></path>
                        </g>
                    </g>
                </g>
            </g>
        </g>
    </g>
</svg>