<?xml version="1.0" encoding="UTF-8"?>
<svg width="18px" height="19px" viewBox="0 0 18 19" version="1.1" xmlns="http://www.w3.org/2000/svg" xmlns:xlink="http://www.w3.org/1999/xlink">
    <!-- Generator: Sketch 45.1 (43504) - http://www.bohemiancoding.com/sketch -->
    <title>加载</title>
    <desc>Created with Sketch.</desc>
    <defs></defs>
    <g id="终稿" stroke="none" stroke-width="1" fill="none" fill-rule="evenodd">
        <g id="直播界面-语音样式" transform="translate(-93.000000, -385.000000)" fill-rule="nonzero" fill="#00D2C3">
            <g id="Group-7" transform="translate(14.000000, 348.000000)">
                <g id="Group-5-Copy-3" transform="translate(0.000000, 0.000000)">
                    <g id="Group-9-Copy" transform="translate(64.000000, 26.000000)">
                        <g id="Group-2">
                            <path d="M24.4913357,15.9410031 C23.1282857,15.9410031 22.01895,14.8328486 22.01895,13.4705016 C22.01895,12.1087328 23.1283071,11 24.4913357,11 C25.8543643,11 26.9632286,12.1081759 26.9632286,13.4705016 C26.9632286,14.8328272 25.8544286,15.9410031 24.4913357,15.9410031 L24.4913357,15.9410031 Z M19.2279214,17.9027555 C17.9830071,17.9027555 16.9696929,16.8905041 16.9696929,15.6457766 C16.9696929,14.401049 17.9830071,13.3887976 19.2279214,13.3887976 C20.4728357,13.3887976 21.4861714,14.401049 21.4861714,15.6457766 C21.4861714,16.8899473 20.4728357,17.9027555 19.2279214,17.9027555 Z M16.9913357,23.0081732 C15.8930786,23.0081732 15,22.1156187 15,21.0179797 C15,19.9208547 15.8930786,19.0283002 16.9913357,19.0283002 C18.0890786,19.0283002 18.9821143,19.9208976 18.9821143,21.0179797 C18.9821143,22.1156187 18.0890357,23.0081946 16.9913357,23.0081732 L16.9913357,23.0081732 Z M19.2279214,28.0661962 C18.2968929,28.0661962 17.5393714,27.3091439 17.5393714,26.3785751 C17.5393714,25.4480706 18.2973857,24.6909969 19.2279214,24.6909969 C20.1584571,24.6909969 20.9164714,25.4480492 20.9164714,26.3785751 C20.9164714,27.3091225 20.1589714,28.0661962 19.2279214,28.0661962 Z M24.4913357,30 C23.67795,30 23.0164286,29.3388723 23.0164286,28.525923 C23.0164286,27.7129523 23.6779286,27.0518674 24.4913357,27.0518674 C25.3047429,27.0518674 25.9662214,27.7129523 25.9662214,28.525923 C25.9662214,29.3388723 25.3047429,30 24.4913357,30 Z M29.8344429,27.508446 C29.1782357,27.508446 28.64385,26.9749179 28.64385,26.3185447 C28.64385,25.6621715 29.1782357,25.1286433 29.8344429,25.1286433 C30.49065,25.1286433 31.0249929,25.66215 31.0249929,26.3185447 C31.0249714,26.9748965 30.4906286,27.508446 29.8344429,27.508446 L29.8344429,27.508446 Z M32.0225143,22.0033105 C31.4839286,22.0033105 31.0455857,21.5652144 31.0455857,21.0269318 C31.0455857,20.4886492 31.4839286,20.0505317 32.0225143,20.0505317 C32.5611,20.0505317 33,20.4886278 33,21.0269318 C33,21.565193 32.5610786,22.0033105 32.0225143,22.0033105 Z M29.0764286,15.719021 C29.0764286,16.1374354 29.4157929,16.4766087 29.8344214,16.4766087 C30.25305,16.4766087 30.5924357,16.137414 30.5924357,15.719021 C30.5924357,15.3006067 30.25305,14.9614334 29.8344214,14.9614334 C29.4157929,14.9614334 29.0764286,15.3005852 29.0764286,15.719021 Z" id="加载"></path>
                        </g>
                    </g>
                </g>
            </g>
        </g>
    </g>
</svg>